<svg width="32" height="161" viewBox="0 0 32 161" fill="none" xmlns="http://www.w3.org/2000/svg">
<path d="M15.0986 69.3779L18.0869 69.958L18.0869 67.4707L19.2207 67.4707L19.2207 70.1689L23 70.9072L23 72.1113L19.2207 71.373L19.2207 74.0361L23 74.7568L23 75.9521L19.2207 75.249L19.2207 77.5518L18.0869 77.5518L18.0869 75.0293L15.0986 74.4316L15.0986 76.8662L13.9824 76.8662L13.9824 74.2383L10.1504 73.5176L10.1504 72.2959L13.9824 73.0166L13.9824 70.3359L10.1504 69.5977L10.1504 68.4199L13.9824 69.1582L13.9824 66.8379L15.0986 66.8379L15.0986 69.3779ZM18.0869 73.8252L18.0869 71.1621L15.0986 70.582L15.0986 73.2451L18.0869 73.8252ZM16.2676 58.2253L16.2676 53.8571L22.5166 53.8571C22.7334 54.5368 22.8975 55.2282 23.0088 55.9314C23.1201 56.6345 23.1758 57.4489 23.1758 58.3747C23.1758 60.32 22.5986 61.8347 21.4443 62.9187C20.2842 64.0027 18.6611 64.5446 16.5752 64.5446C15.2393 64.5446 14.0703 64.278 13.0684 63.7448C12.0605 63.2058 11.293 62.4323 10.7656 61.4245C10.2324 60.4167 9.96582 59.2361 9.96582 57.8825C9.96582 56.5114 10.2178 55.2341 10.7217 54.0505L12.04 54.6306C11.5479 55.7907 11.3018 56.907 11.3018 57.9792C11.3018 59.5437 11.7676 60.7654 12.6992 61.6443C13.6309 62.5232 14.9229 62.9626 16.5752 62.9626C18.3096 62.9626 19.625 62.5407 20.5215 61.697C21.418 60.8474 21.8662 59.6023 21.8662 57.9616C21.8662 57.071 21.7637 56.2009 21.5586 55.3513L17.6035 55.3513L17.6035 58.2253L16.2676 58.2253ZM23.1758 46.1938C23.1758 47.6176 22.7422 48.7426 21.875 49.5688C21.0078 50.3891 19.8037 50.7993 18.2627 50.7993C16.71 50.7993 15.4766 50.4184 14.5625 49.6567C13.6484 48.8891 13.1914 47.8608 13.1914 46.5717C13.1914 45.3647 13.5898 44.4096 14.3867 43.7065C15.1777 43.0034 16.2236 42.6518 17.5244 42.6518L18.4473 42.6518L18.4473 49.2875C19.5781 49.2582 20.4365 48.9741 21.0225 48.435C21.6084 47.8901 21.9014 47.1254 21.9014 46.1411C21.9014 45.1039 21.6846 44.0786 21.251 43.0649L22.5518 43.0649C22.7744 43.5805 22.9326 44.0698 23.0264 44.5327C23.126 44.9897 23.1758 45.5434 23.1758 46.1938ZM14.4131 46.5893C14.4131 47.3627 14.665 47.9809 15.1689 48.4438C15.6729 48.9008 16.3701 49.1704 17.2607 49.2524L17.2607 44.2162C16.3408 44.2162 15.6377 44.4213 15.1514 44.8315C14.6592 45.2416 14.4131 45.8276 14.4131 46.5893ZM13.1914 35.0412C13.1914 34.6134 13.2266 34.2296 13.2969 33.8898L14.6504 34.092C14.5625 34.4904 14.5186 34.842 14.5186 35.1466C14.5186 35.9259 14.835 36.5939 15.4678 37.1505C16.1006 37.7013 16.8887 37.9767 17.832 37.9767L23 37.9767L23 39.4357L13.3672 39.4357L13.3672 38.2316L15.1514 38.0646L15.1514 37.9943C14.5244 37.6369 14.041 37.2062 13.7012 36.7023C13.3613 36.1984 13.1914 35.6447 13.1914 35.0412ZM23 29.9091L23 31.368L13.3672 31.368L13.3672 29.9091L23 29.9091ZM10.7568 31.4911C10.4228 31.4911 10.1797 31.4091 10.0273 31.245C9.86914 31.0809 9.79004 30.8759 9.79004 30.6298C9.79004 30.3954 9.86914 30.1932 10.0273 30.0233C10.1855 29.8534 10.4287 29.7684 10.7568 29.7684C11.085 29.7684 11.3311 29.8534 11.4951 30.0233C11.6533 30.1932 11.7324 30.3954 11.7324 30.6298C11.7324 30.8759 11.6533 31.0809 11.4951 31.245C11.3311 31.4091 11.085 31.4911 10.7568 31.4911ZM23.1758 22.2457C23.1758 23.6402 22.748 24.7213 21.8926 25.4889C21.0312 26.2506 19.8154 26.6314 18.2451 26.6314C16.6338 26.6314 15.3887 26.2447 14.5098 25.4713C13.6309 24.692 13.1914 23.5846 13.1914 22.149C13.1914 21.6861 13.2412 21.2232 13.3408 20.7604C13.4404 20.2975 13.5576 19.9342 13.6924 19.6705L14.9316 20.1188C14.8027 20.441 14.6973 20.7926 14.6152 21.1734C14.5273 21.5543 14.4834 21.8912 14.4834 22.1842C14.4834 24.1412 15.7314 25.1197 18.2275 25.1197C19.4111 25.1197 20.3193 24.8824 20.9521 24.4078C21.585 23.9273 21.9014 23.2184 21.9014 22.2809C21.9014 21.4781 21.7285 20.6549 21.3828 19.8111L22.6748 19.8111C23.0088 20.4557 23.1758 21.2672 23.1758 22.2457ZM23 10.2054L16.7686 10.2054C15.9834 10.2054 15.3975 10.3841 15.0107 10.7415C14.624 11.0989 14.4307 11.6585 14.4307 12.4202C14.4307 13.4339 14.7061 14.1751 15.2568 14.6439C15.8076 15.1068 16.71 15.3382 17.9639 15.3382L23 15.3382L23 16.7972L9.32422 16.7972L9.32422 15.3382L13.4639 15.3382C13.9619 15.3382 14.375 15.3616 14.7031 15.4085L14.7031 15.3206C14.2402 15.0335 13.877 14.6263 13.6133 14.0989C13.3437 13.5657 13.209 12.9593 13.209 12.2796C13.209 11.1019 13.4902 10.22 14.0527 9.6341C14.6094 9.0423 15.4971 8.74641 16.7158 8.74641L23 8.74641L23 10.2054ZM21.9717 1.90922C21.9717 1.6514 21.9541 1.40238 21.9189 1.16215C21.8779 0.921912 21.8369 0.731483 21.7959 0.590858L22.9121 0.590857C22.9883 0.749061 23.0498 0.983436 23.0967 1.29398C23.1494 1.59867 23.1758 1.87406 23.1758 2.12015C23.1758 3.98344 22.1943 4.91508 20.2314 4.91508L14.501 4.91508L14.501 6.29496L13.7978 6.29496L13.1914 4.91508L11.1348 4.29984L11.1348 3.45609L13.3672 3.45609L13.3672 0.66117L14.501 0.66117L14.501 3.45609L20.1699 3.45609C20.75 3.45609 21.1953 3.3184 21.5059 3.04301C21.8164 2.76762 21.9717 2.38969 21.9717 1.90922Z" fill="white"/>
<path d="M15.0986 152.378L18.0869 152.958L18.0869 150.471L19.2207 150.471L19.2207 153.169L23 153.907L23 155.111L19.2207 154.373L19.2207 157.036L23 157.757L23 158.952L19.2207 158.249L19.2207 160.552L18.0869 160.552L18.0869 158.029L15.0986 157.432L15.0986 159.866L13.9824 159.866L13.9824 157.238L10.1504 156.518L10.1504 155.296L13.9824 156.017L13.9824 153.336L10.1504 152.598L10.1504 151.42L13.9824 152.158L13.9824 149.838L15.0986 149.838L15.0986 152.378ZM18.0869 156.825L18.0869 154.162L15.0986 153.582L15.0986 156.245L18.0869 156.825ZM10.1504 146.877L10.1504 143.247C10.1504 141.542 10.4053 140.308 10.915 139.547C11.4248 138.785 12.2305 138.404 13.332 138.404C14.0937 138.404 14.7236 138.618 15.2217 139.046C15.7139 139.467 16.0332 140.086 16.1797 140.9L16.2676 140.9C16.6016 138.949 17.627 137.973 19.3437 137.973C20.4922 137.973 21.3887 138.363 22.0332 139.142C22.6777 139.916 23 141 23 142.394L23 146.877L10.1504 146.877ZM15.6523 145.383L15.6523 142.922C15.6523 141.867 15.4883 141.108 15.1602 140.645C14.8262 140.182 14.2666 139.951 13.4814 139.951C12.7607 139.951 12.2422 140.209 11.9258 140.724C11.6035 141.24 11.4424 142.06 11.4424 143.185L11.4424 145.383L15.6523 145.383ZM16.918 145.383L21.7256 145.383L21.7256 142.702C21.7256 141.665 21.5264 140.885 21.1279 140.364C20.7236 139.837 20.0937 139.573 19.2383 139.573C18.4414 139.573 17.8555 139.842 17.4805 140.382C17.1055 140.915 16.918 141.729 16.918 142.825L16.918 145.383ZM23 128.781L21.6289 129.071L21.6289 129.141C22.2324 129.622 22.6426 130.102 22.8594 130.582C23.0703 131.057 23.1758 131.652 23.1758 132.367C23.1758 133.322 22.9297 134.072 22.4375 134.617C21.9453 135.156 21.2451 135.425 20.3369 135.425C18.3916 135.425 17.3721 133.87 17.2783 130.758L17.2256 129.123L16.6279 129.123C15.8721 129.123 15.3154 129.288 14.958 129.616C14.5947 129.938 14.4131 130.456 14.4131 131.171C14.4131 131.974 14.6592 132.882 15.1514 133.896L14.0352 134.344C13.7773 133.87 13.5752 133.351 13.4287 132.789C13.2822 132.22 13.209 131.652 13.209 131.083C13.209 129.935 13.4639 129.085 13.9736 128.535C14.4834 127.978 15.3008 127.7 16.4258 127.7L23 127.7L23 128.781ZM21.9717 132.077C21.9717 131.168 21.7227 130.456 21.2246 129.941C20.7266 129.419 20.0293 129.159 19.1328 129.159L18.2627 129.159L18.3242 130.618C18.3652 131.778 18.5469 132.616 18.8691 133.131C19.1855 133.641 19.6807 133.896 20.3545 133.896C20.8818 133.896 21.2832 133.738 21.5586 133.421C21.834 133.099 21.9717 132.651 21.9717 132.077ZM13.1914 119.57C13.1914 119.143 13.2266 118.759 13.2969 118.419L14.6504 118.621C14.5625 119.02 14.5186 119.371 14.5186 119.676C14.5186 120.455 14.835 121.123 15.4678 121.68C16.1006 122.231 16.8887 122.506 17.832 122.506L23 122.506L23 123.965L13.3672 123.965L13.3672 122.761L15.1514 122.594L15.1514 122.524C14.5244 122.166 14.041 121.736 13.7012 121.232C13.3613 120.728 13.1914 120.174 13.1914 119.57Z" fill="white"/>
</svg>
